<svg width="7" height="7" viewBox="0 0 7 7" fill="none" xmlns="http://www.w3.org/2000/svg">
<path d="M5.6 5.6C5.78565 5.6 5.9637 5.67375 6.09497 5.80503C6.22625 5.9363 6.3 6.11435 6.3 6.3C6.3 6.48565 6.22625 6.6637 6.09497 6.79497C5.9637 6.92625 5.78565 7 5.6 7C5.41435 7 5.2363 6.92625 5.10503 6.79497C4.97375 6.6637 4.9 6.48565 4.9 6.3C4.9 5.9115 5.2115 5.6 5.6 5.6ZM0 0H1.1445L1.4735 0.7H6.65C6.74283 0.7 6.83185 0.736875 6.89749 0.802513C6.96313 0.86815 7 0.957174 7 1.05C7 1.1095 6.9825 1.169 6.958 1.225L5.705 3.4895C5.586 3.703 5.355 3.85 5.0925 3.85H2.485L2.17 4.4205L2.1595 4.4625C2.1595 4.48571 2.16872 4.50796 2.18513 4.52437C2.20154 4.54078 2.22379 4.55 2.247 4.55H6.3V5.25H2.1C1.91435 5.25 1.7363 5.17625 1.60503 5.04497C1.47375 4.9137 1.4 4.73565 1.4 4.55C1.4 4.4275 1.4315 4.312 1.484 4.214L1.96 3.3565L0.7 0.7H0V0ZM2.1 5.6C2.28565 5.6 2.4637 5.67375 2.59497 5.80503C2.72625 5.9363 2.8 6.11435 2.8 6.3C2.8 6.48565 2.72625 6.6637 2.59497 6.79497C2.4637 6.92625 2.28565 7 2.1 7C1.91435 7 1.7363 6.92625 1.60503 6.79497C1.47375 6.6637 1.4 6.48565 1.4 6.3C1.4 5.9115 1.7115 5.6 2.1 5.6ZM5.25 3.15L6.223 1.4H1.799L2.625 3.15H5.25Z" fill="black"/>
</svg>
