<svg width="28" height="28" viewBox="0 0 28 28" fill="none" xmlns="http://www.w3.org/2000/svg">
<path d="M14 4.66669C8.84446 4.66669 4.66663 8.84569 4.66663 14C4.66663 19.1544 8.84446 23.3334 14 23.3334C19.1555 23.3334 23.3333 19.1544 23.3333 14C23.3333 8.84569 19.1555 4.66669 14 4.66669ZM18.3248 16.6752C18.5436 16.8939 18.6664 17.1906 18.6664 17.5C18.6664 17.8094 18.5436 18.1061 18.3248 18.3249C18.106 18.5436 17.8093 18.6665 17.5 18.6665C17.1906 18.6665 16.8939 18.5436 16.6751 18.3249L14 15.6497L11.3248 18.3249C11.2167 18.4336 11.0882 18.5198 10.9466 18.5787C10.8051 18.6376 10.6533 18.6679 10.5 18.6679C10.3466 18.6679 10.1949 18.6376 10.0533 18.5787C9.91174 18.5198 9.78322 18.4336 9.67513 18.3249C9.56669 18.2166 9.48066 18.088 9.42197 17.9465C9.36327 17.805 9.33306 17.6532 9.33306 17.5C9.33306 17.3468 9.36327 17.1951 9.42197 17.0535C9.48066 16.912 9.56669 16.7834 9.67513 16.6752L12.3503 14L9.67513 11.3249C9.45637 11.1061 9.33347 10.8094 9.33347 10.5C9.33347 10.1906 9.45637 9.89395 9.67513 9.67519C9.89389 9.45643 10.1906 9.33353 10.5 9.33353C10.8093 9.33353 11.106 9.45643 11.3248 9.67519L14 12.3504L16.6751 9.67519C16.8939 9.45643 17.1906 9.33353 17.5 9.33353C17.8093 9.33353 18.106 9.45643 18.3248 9.67519C18.5436 9.89395 18.6664 10.1906 18.6664 10.5C18.6664 10.8094 18.5436 11.1061 18.3248 11.3249L15.6496 14L18.3248 16.6752Z" fill="white"/>
</svg>
