<svg width="24" height="24" viewBox="0 0 24 24" fill="none" xmlns="http://www.w3.org/2000/svg">
<path d="M5.5 8C5.5 7.33696 5.76339 6.70107 6.23223 6.23223C6.70107 5.76339 7.33696 5.5 8 5.5C8.66304 5.5 9.29893 5.76339 9.76777 6.23223C10.2366 6.70107 10.5 7.33696 10.5 8C10.5 8.66304 10.2366 9.29893 9.76777 9.76777C9.29893 10.2366 8.66304 10.5 8 10.5C7.33696 10.5 6.70107 10.2366 6.23223 9.76777C5.76339 9.29893 5.5 8.66304 5.5 8ZM8 4C6.93913 4 5.92172 4.42143 5.17157 5.17157C4.42143 5.92172 4 6.93913 4 8C4 9.06087 4.42143 10.0783 5.17157 10.8284C5.92172 11.5786 6.93913 12 8 12C9.06087 12 10.0783 11.5786 10.8284 10.8284C11.5786 10.0783 12 9.06087 12 8C12 6.93913 11.5786 5.92172 10.8284 5.17157C10.0783 4.42143 9.06087 4 8 4ZM15.5 9C15.5 8.60218 15.658 8.22064 15.9393 7.93934C16.2206 7.65804 16.6022 7.5 17 7.5C17.3978 7.5 17.7794 7.65804 18.0607 7.93934C18.342 8.22064 18.5 8.60218 18.5 9C18.5 9.39782 18.342 9.77936 18.0607 10.0607C17.7794 10.342 17.3978 10.5 17 10.5C16.6022 10.5 16.2206 10.342 15.9393 10.0607C15.658 9.77936 15.5 9.39782 15.5 9ZM17 6C16.2044 6 15.4413 6.31607 14.8787 6.87868C14.3161 7.44129 14 8.20435 14 9C14 9.79565 14.3161 10.5587 14.8787 11.1213C15.4413 11.6839 16.2044 12 17 12C17.7956 12 18.5587 11.6839 19.1213 11.1213C19.6839 10.5587 20 9.79565 20 9C20 8.20435 19.6839 7.44129 19.1213 6.87868C18.5587 6.31607 17.7956 6 17 6ZM4.25 14C3.65326 14 3.08097 14.2371 2.65901 14.659C2.23705 15.081 2 15.6533 2 16.25V16.528C2.00118 16.5975 2.00585 16.6669 2.014 16.736C2.09658 17.4801 2.36404 18.1917 2.792 18.806C3.61 19.974 5.172 21 8 21C9.819 21 11.113 20.576 12.024 19.963C12.084 19.5968 12.2596 19.2594 12.525 19C12.227 18.7086 12.0433 18.3202 12.007 17.905C11.9978 17.9184 11.9884 17.9317 11.979 17.945C11.486 18.65 10.422 19.5 8 19.5C5.578 19.5 4.514 18.65 4.02 17.945C3.73989 17.5414 3.56369 17.075 3.507 16.587C3.50397 16.5604 3.50163 16.5337 3.5 16.507V16.25C3.5 16.0511 3.57902 15.8603 3.71967 15.7197C3.86032 15.579 4.05109 15.5 4.25 15.5H11.75C11.848 15.5 11.94 15.519 12.026 15.552C11.9821 15.2959 11.9954 15.0333 12.0649 14.783C12.1344 14.5327 12.2584 14.3008 12.428 14.104C12.2086 14.0349 11.98 13.9998 11.75 14H4.25ZM12.525 16.5L12.498 16.527L12.5 16.507V16.475L12.525 16.5ZM13.75 14.5C13.5511 14.5 13.3603 14.579 13.2197 14.7197C13.079 14.8603 13 15.0511 13 15.25C13 15.4489 13.079 15.6397 13.2197 15.7803C13.3603 15.921 13.5511 16 13.75 16H21.25C21.4489 16 21.6397 15.921 21.7803 15.7803C21.921 15.6397 22 15.4489 22 15.25C22 15.0511 21.921 14.8603 21.7803 14.7197C21.6397 14.579 21.4489 14.5 21.25 14.5H13.75ZM13.75 17C13.5511 17 13.3603 17.079 13.2197 17.2197C13.079 17.3603 13 17.5511 13 17.75C13 17.9489 13.079 18.1397 13.2197 18.2803C13.3603 18.421 13.5511 18.5 13.75 18.5H21.25C21.4489 18.5 21.6397 18.421 21.7803 18.2803C21.921 18.1397 22 17.9489 22 17.75C22 17.5511 21.921 17.3603 21.7803 17.2197C21.6397 17.079 21.4489 17 21.25 17H13.75ZM13.75 19.5C13.5511 19.5 13.3603 19.579 13.2197 19.7197C13.079 19.8603 13 20.0511 13 20.25C13 20.4489 13.079 20.6397 13.2197 20.7803C13.3603 20.921 13.5511 21 13.75 21H21.25C21.4489 21 21.6397 20.921 21.7803 20.7803C21.921 20.6397 22 20.4489 22 20.25C22 20.0511 21.921 19.8603 21.7803 19.7197C21.6397 19.579 21.4489 19.5 21.25 19.5H13.75Z" fill="white"/>
</svg>
