<svg width="24" height="24" viewBox="0 0 24 24" fill="none" xmlns="http://www.w3.org/2000/svg">
<path d="M11.5 0C9.4233 0 7.39323 0.615814 5.66652 1.76957C3.9398 2.92332 2.59399 4.5632 1.79927 6.48182C1.00455 8.40045 0.796614 10.5116 1.20176 12.5484C1.6069 14.5852 2.60693 16.4562 4.07538 17.9246C5.54383 19.3931 7.41476 20.3931 9.45156 20.7982C11.4884 21.2034 13.5996 20.9955 15.5182 20.2007C17.4368 19.406 19.0767 18.0602 20.2304 16.3335C21.3842 14.6068 22 12.5767 22 10.5C22 7.71523 20.8938 5.04451 18.9246 3.07538C16.9555 1.10625 14.2848 0 11.5 0ZM10 14.6925L6.25 10.9425L7.4425 9.75L10 12.3075L15.5575 6.75L16.7545 7.9395L10 14.6925Z" fill="white"/>
</svg>
