<svg width="24" height="24" viewBox="0 0 24 24" fill="none" xmlns="http://www.w3.org/2000/svg">
<path fill-rule="evenodd" clip-rule="evenodd" d="M10.75 2H12.75C15.578 2 16.993 2 17.871 2.879C18.75 3.757 18.75 5.172 18.75 8V16C18.75 18.828 18.75 20.243 17.871 21.121C16.993 22 15.578 22 12.75 22H10.75C7.922 22 6.507 22 5.629 21.121C4.75 20.243 4.75 18.828 4.75 16V8C4.75 5.172 4.75 3.757 5.629 2.879C6.507 2 7.922 2 10.75 2ZM8 13C8 12.8011 8.07902 12.6103 8.21967 12.4697C8.36032 12.329 8.55109 12.25 8.75 12.25H14.75C14.9489 12.25 15.1397 12.329 15.2803 12.4697C15.421 12.6103 15.5 12.8011 15.5 13C15.5 13.1989 15.421 13.3897 15.2803 13.5303C15.1397 13.671 14.9489 13.75 14.75 13.75H8.75C8.55109 13.75 8.36032 13.671 8.21967 13.5303C8.07902 13.3897 8 13.1989 8 13ZM8 9C8 8.80109 8.07902 8.61032 8.21967 8.46967C8.36032 8.32902 8.55109 8.25 8.75 8.25H14.75C14.9489 8.25 15.1397 8.32902 15.2803 8.46967C15.421 8.61032 15.5 8.80109 15.5 9C15.5 9.19891 15.421 9.38968 15.2803 9.53033C15.1397 9.67098 14.9489 9.75 14.75 9.75H8.75C8.55109 9.75 8.36032 9.67098 8.21967 9.53033C8.07902 9.38968 8 9.19891 8 9ZM8 17C8 16.8011 8.07902 16.6103 8.21967 16.4697C8.36032 16.329 8.55109 16.25 8.75 16.25H11.75C11.9489 16.25 12.1397 16.329 12.2803 16.4697C12.421 16.6103 12.5 16.8011 12.5 17C12.5 17.1989 12.421 17.3897 12.2803 17.5303C12.1397 17.671 11.9489 17.75 11.75 17.75H8.75C8.55109 17.75 8.36032 17.671 8.21967 17.5303C8.07902 17.3897 8 17.1989 8 17ZM1.75 4.25C1.94891 4.25 2.13968 4.32902 2.28033 4.46967C2.42098 4.61032 2.5 4.80109 2.5 5V19C2.5 19.1989 2.42098 19.3897 2.28033 19.5303C2.13968 19.671 1.94891 19.75 1.75 19.75C1.55109 19.75 1.36032 19.671 1.21967 19.5303C1.07902 19.3897 1 19.1989 1 19V5C1 4.80109 1.07902 4.61032 1.21967 4.46967C1.36032 4.32902 1.55109 4.25 1.75 4.25ZM21.75 4.25C21.9489 4.25 22.1397 4.32902 22.2803 4.46967C22.421 4.61032 22.5 4.80109 22.5 5V19C22.5 19.1989 22.421 19.3897 22.2803 19.5303C22.1397 19.671 21.9489 19.75 21.75 19.75C21.5511 19.75 21.3603 19.671 21.2197 19.5303C21.079 19.3897 21 19.1989 21 19V5C21 4.80109 21.079 4.61032 21.2197 4.46967C21.3603 4.32902 21.5511 4.25 21.75 4.25Z" fill="white"/>
</svg>
