<svg width="24" height="24" viewBox="0 0 24 24" fill="none" xmlns="http://www.w3.org/2000/svg">
<path d="M10.591 2.51299C11.4946 2.14663 12.5054 2.14663 13.409 2.51299L20.907 5.55299C21.23 5.68381 21.5065 5.90807 21.7013 6.19704C21.896 6.48601 22 6.82653 22 7.17499V16.828C21.9998 17.1763 21.8957 17.5166 21.701 17.8054C21.5063 18.0941 21.2298 18.3182 20.907 18.449L13.409 21.489C12.5054 21.8554 11.4946 21.8554 10.591 21.489L3.093 18.449C2.77003 18.3182 2.49347 18.0939 2.29875 17.8049C2.10402 17.516 2 17.1754 2 16.827V7.17599C2 6.82753 2.10402 6.48701 2.29875 6.19804C2.49347 5.90907 2.77003 5.68481 3.093 5.55399L10.591 2.51299ZM12.845 3.90299C12.3031 3.68339 11.6969 3.68339 11.155 3.90299L9.24 4.67999L16.767 7.60699L19.436 6.57699L12.844 3.90399L12.845 3.90299ZM14.691 8.40799L7.215 5.49999L4.59 6.56399L12.001 9.44599L14.691 8.40799ZM3.5 16.828C3.50013 16.8776 3.51504 16.9261 3.54282 16.9672C3.5706 17.0084 3.61 17.0403 3.656 17.059L11.155 20.099C11.186 20.112 11.218 20.124 11.25 20.135V10.764L3.5 7.74999V16.828ZM12.845 20.099L20.344 17.059C20.3902 17.0403 20.4297 17.0082 20.4575 16.9668C20.4853 16.9255 20.5001 16.8768 20.5 16.827V7.77399L12.75 10.766V20.136C12.7819 20.1247 12.8136 20.1117 12.845 20.099Z" fill="white"/>
</svg>
